<?xml version="1.0" encoding="utf-8"?>
<!-- Generator: Adobe Illustrator 27.9.6, SVG Export Plug-In . SVG Version: 9.03 Build 54986)  -->
<svg version="1.1" id="Layer_1" xmlns="http://www.w3.org/2000/svg" xmlns:xlink="http://www.w3.org/1999/xlink" x="0px" y="0px"
	 viewBox="0 0 400 400" style="enable-background:new 0 0 400 400;" xml:space="preserve">
<style type="text/css">
	.st0{fill-rule:evenodd;clip-rule:evenodd;fill:#0074BD;}
	.st1{fill-rule:evenodd;clip-rule:evenodd;fill:#EA2D2E;}
</style>
<g>
	<path class="st0" d="M157,278.3c0,0-12.6,7.3,9,9.8c26.1,3,39.5,2.6,68.2-2.9c0,0,7.6,4.7,18.1,8.8
		C187.8,321.7,106.3,292.5,157,278.3L157,278.3z"/>
	<path class="st0" d="M149.1,242.2c0,0-14.1,10.5,7.5,12.7c27.9,2.9,49.9,3.1,88-4.2c0,0,5.3,5.3,13.5,8.3
		C180.2,281.8,93.3,260.8,149.1,242.2L149.1,242.2z"/>
	<path class="st1" d="M215.5,181c15.9,18.3-4.2,34.8-4.2,34.8s40.4-20.8,21.8-46.9c-17.3-24.3-30.6-36.4,41.3-78.1
		C274.5,90.8,161.7,119,215.5,181L215.5,181z"/>
	<path class="st0" d="M300.9,305c0,0,9.3,7.7-10.3,13.6c-37.2,11.3-155,14.7-187.7,0.5c-11.7-5.1,10.3-12.2,17.2-13.7
		c7.2-1.6,11.4-1.3,11.4-1.3c-13.1-9.2-84.5,18.1-36.3,25.9C226.7,351.3,335,320.4,300.9,305L300.9,305z"/>
	<path class="st0" d="M163,204.9c0,0-59.9,14.2-21.2,19.4c16.3,2.2,48.9,1.7,79.2-0.9c24.8-2.1,49.7-6.5,49.7-6.5s-8.7,3.7-15.1,8.1
		c-60.8,16-178.3,8.5-144.5-7.8C139.8,203.3,163,204.9,163,204.9L163,204.9z"/>
	<path class="st0" d="M270.5,264.9c61.8-32.1,33.2-63,13.3-58.8c-4.9,1-7.1,1.9-7.1,1.9s1.8-2.8,5.3-4.1
		c39.5-13.9,69.8,40.9-12.7,62.6C269.2,266.5,270.2,265.7,270.5,264.9L270.5,264.9z"/>
	<path class="st1" d="M233.2,23.5c0,0,34.2,34.3-32.5,86.9c-53.5,42.3-12.2,66.3,0,93.9c-31.2-28.2-54.1-53-38.8-76.1
		C184.5,94.3,247,77.9,233.2,23.5L233.2,23.5z"/>
	<path class="st0" d="M169.1,352c59.3,3.8,150.5-2.1,152.6-30.2c0,0-4.1,10.6-49,19.1c-50.6,9.5-113.1,8.4-150.2,2.3
		C122.5,343.2,130.1,349.5,169.1,352L169.1,352z"/>
</g>
</svg>
