<?xml version="1.0" encoding="UTF-8"?>
<svg id="Layer_1" data-name="Layer 1" xmlns="http://www.w3.org/2000/svg" viewBox="0 0 400 400">
  <defs>
    <style>
      .cls-1 {
        fill: #fff;
      }
    </style>
  </defs>
  <path class="cls-1" d="M.51,200.5v-.5C.5,90.16,89.73.77,199.5.5v49c-82.76.27-150,67.68-150,150.5,0,.17,0,.33,0,.5H.51Z"/>
  <path class="cls-1" d="M199,1v48c-39.96.26-77.49,15.94-105.77,44.22-28.52,28.52-44.23,66.44-44.23,106.77H1c0-26.87,5.26-52.93,15.64-77.46,10.02-23.7,24.37-44.98,42.65-63.25,18.28-18.28,39.56-32.62,63.25-42.65C146.77,6.39,172.49,1.13,199,1M200,0C89.54,0,0,89.54,0,200c0,.33.01.67.01,1h50c0-.33-.01-.67-.01-1,0-82.84,67.16-150,150-150V0h0Z"/>
</svg>